<?xml version="1.0" encoding="UTF-8" ?>
<!DOCTYPE svg PUBLIC "-//W3C//DTD SVG 1.1//EN" "http://www.w3.org/Graphics/SVG/1.1/DTD/svg11.dtd">
<svg width="179pt" height="167pt" viewBox="0 0 179 167" version="1.1" xmlns="http://www.w3.org/2000/svg">
<g id="#131311ff">
</g>
<g id="#d9cfc5ff">
<path fill="#d9cfc5" opacity="1.00" d=" M 22.67 39.08 C 26.81 40.15 32.85 36.98 35.27 41.68 C 58.90 72.69 83.53 102.91 107.38 133.74 C 102.46 133.47 97.45 134.02 92.59 133.45 C 72.70 108.32 52.80 83.15 33.18 57.80 C 33.44 83.05 33.17 108.31 33.27 133.56 C 29.74 133.53 26.21 133.52 22.68 133.56 C 22.66 102.06 22.63 70.57 22.67 39.08 Z" />
<path fill="#d9cfc5" opacity="1.00" d=" M 118.02 39.16 C 122.15 39.14 126.27 39.22 130.40 39.11 C 130.69 57.39 130.47 75.68 130.52 93.96 C 143.71 94.10 156.91 93.91 170.10 94.08 C 170.06 97.25 170.07 100.42 170.02 103.59 C 158.72 122.00 147.70 140.58 136.42 158.99 C 132.46 158.93 128.50 158.94 124.55 158.96 C 135.38 140.01 147.27 121.67 158.23 102.78 C 149.04 102.83 139.84 102.98 130.65 102.73 C 130.70 113.01 130.58 123.30 130.65 133.58 C 127.23 133.63 123.81 133.61 120.40 133.56 C 120.45 123.32 120.69 113.06 120.19 102.83 C 108.18 103.02 96.18 102.66 84.18 102.85 C 83.25 97.65 82.02 91.16 86.07 86.96 C 96.69 71.02 107.93 55.37 118.02 39.16 M 94.29 93.93 C 102.96 93.80 111.65 94.08 120.33 94.01 C 120.59 80.66 120.92 67.32 120.95 53.97 C 112.03 67.26 102.78 80.37 94.29 93.93 Z" />
</g>
</svg>
